# xmcd
# Track frame offsets:
# 150
# 11757
# 25358
# 36133
# 50146
# 62937
# 76259
# 87316
# 103598
# 118772
# 131936
#
# Disc length: 2025 seconds
# Revision: 0
# Processed by: cddbd v1.5.1PL2 Copyright (c) Steve Scherf et al.
# Submitted via: VisiTrax 2.9.10.228 - For more info visit www.synapsa.com
#
DISCID=9907e70b
DTITLE=Michael Elvin Hunt - Sweet Fire
DYEAR=2004
DGENRE=
TTITLE0=Some Sunny Day It Is
TTITLE1=Even Tho'
TTITLE2=Back in The Swing of Things
TTITLE3=Night Wings
TTITLE4=Victim Of Life's Circumstances
TTITLE5=Sweet Fire
TTITLE6=U.S. Choice Prime Grade A-1 Baloney
TTITLE7=Carmen
TTITLE8=Queen Of Hearts
TTITLE9=Who Goes, Who Stays, Who Cares
TTITLE10=Oh, Lonesome Me
EXTD=Night Wings Recordings CD-MEH-01
EXTT0=
EXTT1=
EXTT2=
EXTT3=
EXTT4=
EXTT5=
EXTT6=
EXTT7=
EXTT8=
EXTT9=
EXTT10=
PLAYORDER=
